<svg width="2048" height="768" fill="none" xmlns="http://www.w3.org/2000/svg"><path fill="url(#a)" d="M0 0h2048v768H0z"/><mask id="b" style="mask-type:alpha" maskUnits="userSpaceOnUse" x="0" y="0" width="2048" height="768"><path fill="#D9D9D9" d="M0 0h2048v768H0z"/></mask><g mask="url(#b)"><g opacity=".8"><path fill-rule="evenodd" clip-rule="evenodd" d="m966.18 547.96 40.82 5.54 781.74-14.5L1665 562.3a575.098 575.098 0 0 1-92.52 9.68l-20.76.46c-23.72.54-47.44-.401-71.04-2.82l-66.36-6.78-64 1.32-85.66 7.56a278.162 278.162 0 0 1-34.64.9l-166.56-6.12L885 573.78l81.18-25.82Z" fill="url(#c)"/><path fill-rule="evenodd" clip-rule="evenodd" d="m1659.12 544.159 67.5-.66c-19.4.86-49.1 1.16-52.74 2.66-3.64 1.5 7.68 1.78 17.76 2-24.52.56-62.58 1.08-67.7 2.14-9.12 1.68 7.04 2.86 16.68 4l-59.42-.58 10.72-13.52 67.2 3.96Z" fill="#FD81AC" style="mix-blend-mode:multiply" opacity=".26"/><path fill-rule="evenodd" clip-rule="evenodd" d="M1484.48 546.96h161.64l-13.28-12.44-9.98-9.34-17.08-15.96-2.82-2.64-4.06-3.8-3.6-3.36-16.68-15.64-2-1.88-3.92-3.64-7.2-4.02-13.7 12.3-6.9 6.2-4.76 4.26-3.82 3.42-2.5 2.24.06 1.88-3.82 1.5-13.02 11.7-15.16 13.6-17.4 15.62Z" fill="url(#d)"/><path fill-rule="evenodd" clip-rule="evenodd" d="M1484.48 546.96h72.62l2.9-21.52-3.16-1.62 3.56-1.44.72-5.32 18.4-.18-18.22-1.34 3.32-24.74 6.36-1.56-5.94-1.74.46-3.26v-10l-13.7 12.3-6.9 6.2-4.76 4.26-3.82 3.42-2.5 2.24.06 1.88-3.82 1.5-13.02 11.7-15.16 13.6-17.4 15.62Z" fill="#F5BE76"/><path fill-rule="evenodd" clip-rule="evenodd" d="m1572.68 478.24-7.18.86v-4.84l7.18 3.98Z" fill="#6BFF7E" style="mix-blend-mode:color-dodge" opacity=".3"/><path fill-rule="evenodd" clip-rule="evenodd" d="m1533.82 502.66 1.82 3.12 3.16.74-8.74-.48 3.82-1.48-.06-1.9Z" fill="#EABB7E" style="mix-blend-mode:multiply" opacity=".3"/><path fill-rule="evenodd" clip-rule="evenodd" d="m1501.88 531.34 23.04-.32 5.14-8.04h-9.04l4.86-5.24h-8.84l-15.16 13.6ZM1536.32 500.42h22.36l.6-3.42h-19.14l-3.82 3.42Z" fill="#EABB7E" style="mix-blend-mode:multiply" opacity=".15"/><path fill-rule="evenodd" clip-rule="evenodd" d="m1579.5 516.881-18.2-1.32-8.96 2.18 8.76-.7 18.4-.16Z" fill="#EABB7E" style="mix-blend-mode:multiply" opacity=".3"/><path fill-rule="evenodd" clip-rule="evenodd" d="M1565.5 481.9h-3.54l-1.46 2.68 5-.34v-2.34ZM1558.82 534.18l-45.74 1-4.14 4.259h49.18l.7-5.259Z" fill="#EABB7E" style="mix-blend-mode:multiply" opacity=".15"/><path fill-rule="evenodd" clip-rule="evenodd" d="M1530.06 522.979h17.52l1.46-2.8h-17.54l-1.44 2.8ZM1549.04 500.419h14.2l-.48 2.8h-15.88l2.16-2.8ZM1544.9 492.739h7.44l2.18-3.1h3.32l1.44-3.1h-7.48l-6.9 6.2Z" fill="#6BFF7E" style="mix-blend-mode:color-dodge" opacity=".1"/><path fill-rule="evenodd" clip-rule="evenodd" d="M1557.14 510.96h-7.74l2.68-.78 5.38.78h-.32ZM1541.66 512.26h-12l3.18 1.28 8.82-1.28Z" fill="#EABB7E" style="mix-blend-mode:multiply" opacity=".3"/><path fill-rule="evenodd" clip-rule="evenodd" d="m1563.2 495.92-14.06-.24 10.14-1.78 3.92 2.02Z" fill="#EABB7E" style="mix-blend-mode:multiply" opacity=".15"/><path fill-rule="evenodd" clip-rule="evenodd" d="M1542.64 522.98h7.92l-3.96.96-3.96-.96Z" fill="#EABB7E" style="mix-blend-mode:multiply" opacity=".3"/><path fill-rule="evenodd" clip-rule="evenodd" d="m1544.96 533.521-12.8-.3 3.3-.92 9.5 1.22ZM1563.78 478.179h-1.58l.5.3 1.08-.3Z" fill="#EABB7E" style="mix-blend-mode:multiply" opacity=".15"/><path fill-rule="evenodd" clip-rule="evenodd" d="m1560.4 522.381 3.88 1.88-7.44-.44 3.56-1.44Z" fill="#EABB7E" style="mix-blend-mode:multiply" opacity=".3"/><path fill-rule="evenodd" clip-rule="evenodd" d="m1575.86 499.42 1 3.8 4.04-.08 18-.36-3.6-3.36h-19.44ZM1590.48 506.9l.08.08 3.12 2.68 12.1-.44-2.82-2.64-12.48.32Z" fill="#EABB7E" style="mix-blend-mode:multiply" opacity=".15"/><path fill-rule="evenodd" clip-rule="evenodd" d="m1580.9 503.139 2.44 4.08 7.22-.24 12.4-.4-4.06-3.8-18 .36Z" fill="#6BFF7E" style="mix-blend-mode:color-dodge" opacity=".1"/><path fill-rule="evenodd" clip-rule="evenodd" d="m1585 528.119-25.44.54-1.76 13.08h19.98l.36-6.54h7.4l-.54-7.08Z" fill="#EABB7E" style="mix-blend-mode:multiply" opacity=".15"/><path fill-rule="evenodd" clip-rule="evenodd" d="M1603.1 516.641h-22.2l.8 4.08 25.22-.52-3.82-3.56ZM1597.6 525.18l6.76 5.22h10.54l5.38 4.52 12.56-.4-9.98-9.34h-25.26ZM1569.72 481.9v1.88h8.9l-2-1.88h-6.9Z" fill="#6BFF7E" style="mix-blend-mode:color-dodge" opacity=".1"/><path fill-rule="evenodd" clip-rule="evenodd" d="M1562.42 507.22h7.96l.72 2.44h-9l.32-2.44Z" fill="#EABB7E" style="mix-blend-mode:multiply" opacity=".15"/><path fill-rule="evenodd" clip-rule="evenodd" d="M1584.22 491.839h-6.94l2.86.9 4.08-.9ZM1586.4 507.22l-9.76.28 5.42.94c-.24-.02 4.34-1.22 4.34-1.22ZM1598.9 516.64h11.08l-4.2-.8-6.88.8ZM1625.64 534.92l-17.8.42 5.24 1.48 12.56-1.9ZM1587.92 527.66h-5.84l2.24-1.34 3.6 1.34ZM1573.24 483.779h-5.92l2.4.8 3.52-.8ZM1572.68 493l1.48.9h-3.88l2.4-.9Z" fill="#EABB7E" style="mix-blend-mode:multiply" opacity=".3"/><path fill-rule="evenodd" clip-rule="evenodd" d="m1646.12 546.96-76.4-68.36-4.22-1.3-17.7 12.84 17.7-15.88 7.18 3.98 73.44 68.72Z" fill="#6BFF7E" style="mix-blend-mode:color-dodge" opacity=".7"/><path fill-rule="evenodd" clip-rule="evenodd" d="m1556.84 523.82 7.44.44-4.28 1.18-3.16-1.62Z" fill="#6BFF7E" style="mix-blend-mode:color-dodge" opacity=".5"/><path fill-rule="evenodd" clip-rule="evenodd" d="m1565.5 477.3-.04 7.28-.42 2.92 5.94 1.74-6.36 1.56-.42 3.1-2.9 21.66 1.7-21.66-1.7-5.36 2.06-2.14 2.14-9.1ZM1560 525.439l-5.66 21.52h2.76l2.9-21.52Z" fill="#EABB7E" style="mix-blend-mode:multiply" opacity=".3"/><path fill-rule="evenodd" clip-rule="evenodd" d="m1615.22 546.96-14.5-15.62h-6.12l3.96 15.62h16.66Z" fill="#EABB7E" style="mix-blend-mode:multiply" opacity=".15"/><path fill-rule="evenodd" clip-rule="evenodd" d="m1533.88 504.56 1.76 1.22-1.82-3.12.06 1.9Z" fill="#EABB7E" style="mix-blend-mode:multiply" opacity=".3"/><path fill-rule="evenodd" clip-rule="evenodd" d="m1439 551.461-164.22 8.18 245.92-3.5-81.7-4.68Z" fill="#FFC05F" style="mix-blend-mode:multiply" opacity=".26"/><path fill-rule="evenodd" clip-rule="evenodd" d="M1229.88 546.879h305.84l-23.34-21.44-13.98-12.84-17.54-16.14-5.5-5.039-13.6-12.5-7.58-6.98h-2.26l-1.5-1.4-13.12-12.38-6.58-6.2-10.88-10.28-1.5-5.58-9.22-7.36-13.02-10.4-15.78-12.6-18.76 18.24-.24.24-21.96 21.38 2.2 2.94-4.22 3.72-13.12 11.54-13.02 11.48-32.66 28.759-48.66 42.84Z" fill="url(#e)"/><path fill-rule="evenodd" clip-rule="evenodd" d="m1367.24 431.1 15.18.72.9 4.16h4.1l1.16 3.98h-18.68l-2.66-8.86Z" fill="#6BFF7E" style="mix-blend-mode:color-dodge" opacity=".1"/><path fill-rule="evenodd" clip-rule="evenodd" d="m1377 546.879-.82-14.48h20.38l-3.24-18.04h-45.82l-4.12 10.54 2.5 4.78-3.78 9.42-1.66 7.78H1377Z" fill="#EABB7E" style="mix-blend-mode:multiply" opacity=".1"/><path fill-rule="evenodd" clip-rule="evenodd" d="m1380.32 405.76-10.08 36.44 4.08 3.16.96 4.439-6.92.58-16.38 59.26 15.26 5.1-16.56-.38-9 32.52h-111.8l111.68-98.339-2.18-2.94 40.94-39.84Z" fill="#E3AB62"/><path fill-rule="evenodd" clip-rule="evenodd" d="m1418.34 436.1 1.5 5.58-2.2 8.14-11.14-3.86h-7.3l-12.32 4.44-2.32-4.44-9.28 3.84-6.92.58-11.58-4.42-15.22 2.58-2.18-2.94 16.54-2.44 13.42 1.72.9-2.68 4.08 3.16 10.12-2.2 3.74 3.78 9.42-3.52 9.54.26 9.5 2.38 1.7-9.96Z" fill="#EABB7E" style="mix-blend-mode:multiply" opacity=".3"/><path fill-rule="evenodd" clip-rule="evenodd" d="m1324.22 463.799 26.22-.5 6.02-10.36-19.12-.68-13.12 11.54Z" fill="#6BFF7E" style="mix-blend-mode:color-dodge" opacity=".1"/><path fill-rule="evenodd" clip-rule="evenodd" d="M1278.54 504.039h38.14l11.6-15.44H1309l9.94-13.04-7.74-.28-32.66 28.76Z" fill="#EABB7E" style="mix-blend-mode:multiply" opacity=".1"/><path fill-rule="evenodd" clip-rule="evenodd" d="m1408 470.539-34.92.92-2.72 5.6 42.04 1.86-4.4-8.38ZM1289.76 504.039l-5.54 6.56h53.96l2.04-6.56h-50.46Z" fill="#6BFF7E" style="mix-blend-mode:color-dodge" opacity=".1"/><path fill-rule="evenodd" clip-rule="evenodd" d="m1373.08 471.459-28-.92-4.86 6.52h30.14l2.72-5.6ZM1390.24 424.04l2.56 4.7h16.32l-13.02-10.4 3 5.7h-8.86ZM1416.36 496.461h25.76l13.6 16.12-31.38-.88-7.98-15.24ZM1444.36 475.2l4.24 3.72h13.22l-4.18-3.84-13.28.12Z" fill="#EABB7E" style="mix-blend-mode:multiply" opacity=".1"/><path fill-rule="evenodd" clip-rule="evenodd" d="M1480.86 496.459h-38.74l-5-4.32 38.24-.72 5.5 5.04Z" fill="#6BFF7E" style="mix-blend-mode:color-dodge" opacity=".1"/><path fill-rule="evenodd" clip-rule="evenodd" d="m1466.82 512.6 10.92 12.84h34.64l-13.98-12.84h-31.58Z" fill="#EABB7E" style="mix-blend-mode:multiply" opacity=".1"/><path fill-rule="evenodd" clip-rule="evenodd" d="m1431.96 466-16.34.94 2.74 3.6H1439l-3.98-4.54h-3.06Z" fill="#6BFF7E" style="mix-blend-mode:color-dodge" opacity=".1"/><path fill-rule="evenodd" clip-rule="evenodd" d="m1391.38 453.601 2.62 4.42 43.3.14-6.58-6.2-39.34 1.64Z" fill="#EABB7E" style="mix-blend-mode:multiply" opacity=".1"/><path fill-rule="evenodd" clip-rule="evenodd" d="M1351.36 477.6h18.12l-5.82 1.32-12.3-1.32Z" fill="#E3AB62"/><path fill-rule="evenodd" clip-rule="evenodd" d="M1328.1 489.4h15.9l-6.12 1.92-9.78-1.92ZM1350.44 452.32l12.54 1.28-3.22-1.78-9.32.5ZM1369.38 424.221h-8.74l4.38-1.08 4.36 1.08Z" fill="#EABB7E" style="mix-blend-mode:multiply" opacity=".1"/><path fill-rule="evenodd" clip-rule="evenodd" d="M1390.12 499.34h-20.44l10.22 2.22 10.22-2.22ZM1450.48 489.159h13.4l-6.7-1.56-6.7 1.56ZM1411.24 466l16.34-.9-9.08-2.68-7.26 3.58ZM1466.8 512.6l-24.94-.28 13.86 2.42 11.08-2.14ZM1407.46 431.1l-9.92.62 3.28 2 6.64-2.62Z" fill="#6BFF7E" style="mix-blend-mode:color-dodge" opacity=".3"/><path fill-rule="evenodd" clip-rule="evenodd" d="m1341.68 546.881 4.14-14.92h-45.72l-11.52 14.92h53.1Z" fill="#EABB7E" style="mix-blend-mode:multiply" opacity=".1"/><path fill-rule="evenodd" clip-rule="evenodd" d="M1372.08 435.519h-7.06l-2.04 3.38h8.18l.92-3.38Z" fill="#6BFF7E" style="mix-blend-mode:color-dodge" opacity=".1"/><path fill-rule="evenodd" clip-rule="evenodd" d="m1384.56 445.96-.12-2.8 3.74 3.78-1.3 3.46-2.32-4.44ZM1416.64 446.059l1 3.76-11.14-3.86.64-2.28 9.5 2.38Z" fill="#EABB7E" style="mix-blend-mode:multiply" opacity=".3"/><path fill-rule="evenodd" clip-rule="evenodd" d="m1454.18 471.939-2.6 2.3-10.32-1.72 10.66-.58h2.26Z" fill="#6BFF7E" style="mix-blend-mode:color-dodge" opacity=".3"/><path fill-rule="evenodd" clip-rule="evenodd" d="m1535.72 546.879-84.14-72.639-10.32-1.72 8.2-.58-29.62-30.26 32.08 30.26h2.26l81.54 74.939ZM1418.34 436.1l-.66 3.86-38.52-29.98-21.48 17.7 22.64-21.92 38.02 30.34Z" fill="#6BFF7E" style="mix-blend-mode:color-dodge" opacity=".7"/><path fill-rule="evenodd" clip-rule="evenodd" d="M1544.28 556.14h64.36l-4.12-9.96h-4.74l-2.54-5.94-5.58-.3-3.18-6.62h-24.04l-3.18 6.62h-.06l-.02.02-5.5.28-.34.76v.02l-2.2 5.16h-4.74l-1.1 2.64-.48 1.2-.86 2.04-1.68 4.08Z" fill="url(#f)"/><path fill-rule="evenodd" clip-rule="evenodd" d="M1544.28 556.14h16.1l.6-1.34h.02l1.14-2.52.26-.56.78-1.7 1.26-2.78-3.72-1.04h-.02l-.1-.02 5.4.08h.46l.72-2.1.74-2.16.34-1-4.74-1.06h6.96l.36-1.32.1-.34.38-1.28.3-1.06.62-2.2.12-.4v-.02h-7.92l-3.18 6.62h-.06l-5.52.3-.34.76v.02l-2.2 5.16h-4.74l-1.1 2.64-.48 1.2-.86 2.04-1.68 4.08Z" fill="#F5BE76"/><path fill-rule="evenodd" clip-rule="evenodd" d="m1555.68 540.239 1.38.76 4.12-1.04.02-.02-5.52.3ZM1548.4 546.179l.9.9 3.7-.9h-4.6Z" fill="#6BFF7E" style="mix-blend-mode:color-dodge" opacity=".5"/><path fill-rule="evenodd" clip-rule="evenodd" d="m1560.6 546.179 29.64.44-25.8.62-3.84-1.06ZM1563.52 539.939h17.68l-12.94 1.06-4.74-1.06Z" fill="#6BFF7E" style="mix-blend-mode:color-dodge" opacity=".3"/><path fill-rule="evenodd" clip-rule="evenodd" d="M1544.28 556.141h10.7l.7-2.38h-4.5l.4-1.7h-5.62l-1.68 4.08Z" fill="#EABB7E" style="mix-blend-mode:multiply" opacity=".1"/><path fill-rule="evenodd" clip-rule="evenodd" d="M1563.18 550.019h-9.66l-.52 1.34 9.4.36.78-1.7ZM1567.18 544.16h-9.08l-.24 2.02 8.6.08.72-2.1Z" fill="#6BFF7E" style="mix-blend-mode:color-dodge" opacity=".05"/><path fill-rule="evenodd" clip-rule="evenodd" d="m1555.34 541 5.26.4-.4 1.2h-2.34l-.9 3.58H1553l2.34-5.18ZM1571.62 535.961h-3.2l-.4.96h-1.94l-.7 1.36h5.56l.68-2.32ZM1546.8 550.02h11.06l.46-1.2h-11.02l-.5 1.2Z" fill="#EABB7E" style="mix-blend-mode:multiply" opacity=".1"/><path fill-rule="evenodd" clip-rule="evenodd" d="m1568.26 541-2.42-.1.04.92 2.04.18.34-1Z" fill="#6BFF7E" style="mix-blend-mode:color-dodge" opacity=".05"/><path fill-rule="evenodd" clip-rule="evenodd" d="m1564.44 533.32 7.8.42 15.56.84 3.76 5.52 5.02 1.4 3.22 4.94 4.06 1 4.78 8.7-4.12-9.96h-4.74l-2.54-5.94-5.58-.3-3.18-6.62h-24.04Z" fill="#6BFF7E" style="mix-blend-mode:color-dodge" opacity=".7"/><path fill-rule="evenodd" clip-rule="evenodd" d="m1605.74 550.859-12.18.18v-1.5h-15.44l-1.66 6.6h32.18l-2.9-5.28Z" fill="#6BFF7E" style="mix-blend-mode:color-dodge" opacity=".1"/><path fill-rule="evenodd" clip-rule="evenodd" d="m1571.16 552.559-.9 2.24h-9.28l1.16-2.52 9.02.28ZM1598.18 543.96h-9.08v-1.3l7.96-.4 1.12 1.7Z" fill="#EABB7E" style="mix-blend-mode:multiply" opacity=".1"/><path d="M1591.66 543.961h-13.18v2.5h13.18v-2.5Z" fill="#6BFF7E" style="mix-blend-mode:color-dodge" opacity=".1"/><path fill-rule="evenodd" clip-rule="evenodd" d="m1571.62 535.961 3.4.16-.32 1-3.38-.12.3-1.04Z" fill="#EABB7E" style="mix-blend-mode:multiply" opacity=".1"/><path fill-rule="evenodd" clip-rule="evenodd" d="M1588.5 535.599h-7.66l-.2-1.4 7.16.38.7 1.02Z" fill="#6BFF7E" style="mix-blend-mode:color-dodge" opacity=".1"/><path fill-rule="evenodd" clip-rule="evenodd" d="M1591.46 539.939h-2.96l-.58-1.44 2.42-.22 1.12 1.66Z" fill="#EABB7E" style="mix-blend-mode:multiply" opacity=".1"/><path fill-rule="evenodd" clip-rule="evenodd" d="m1570.84 538.619 12.66.28v1.04h-13.02l.36-1.32Z" fill="#6BFF7E" style="mix-blend-mode:color-dodge" opacity=".1"/><path fill-rule="evenodd" clip-rule="evenodd" d="M1575.02 551.9h-7.38l2.44-1.3 4.94 1.3ZM1583.5 541.439h-8.48l3.82.82 4.66-.82ZM1572.92 535.38h1.3l-.64-.48-.66.48ZM1587.52 536.74h-2.1l1.12.54.98-.54ZM1603.86 547.439h-5.38l1.32-1 4.06 1ZM1559.64 553.539h-2.6l1.3.32 1.3-.32ZM1568.26 534.199h-3.24l.82.7 2.42-.7Z" fill="#EABB7E" style="mix-blend-mode:multiply" opacity=".15"/><path fill-rule="evenodd" clip-rule="evenodd" d="M1495.86 556.119h73.58l-4.7-11.399h-5.42l-2.92-6.78-7.72-.32-2.3-7.58-6.5-1.28-2.02-2.66h-10.42l-2 2.66-6.52 1.28-2.3 7.58-7.72.32-2.92 6.78h-5.4l-4.72 11.399Z" fill="url(#g)"/><path fill-rule="evenodd" clip-rule="evenodd" d="M1495.86 556.119h20.18l3.38-10.119-7.74-1.02 10.06.08 2.24-6.38-4.16-.82h7.06l1.86-6.98-5.84-.6h7.12l1.96-4.18h-4.54l-2 2.66-6.52 1.28-2.3 7.58-7.72.32-2.92 6.78h-5.4l-4.72 11.399Z" fill="#F5BE76"/><path fill-rule="evenodd" clip-rule="evenodd" d="m1518.92 530.021 1.34.26 4.98-1.48-6.32 1.22ZM1508.9 537.937l2 .32 5.72-.64-7.72.32ZM1502.32 544.981l3.68-.24-5.42-.02 1.74.26Z" fill="#6BFF7E" style="mix-blend-mode:color-dodge" opacity=".7"/><path fill-rule="evenodd" clip-rule="evenodd" d="m1543.88 545.24-32.2-.26 7.74 1.02 24.46-.76ZM1537.3 537.859h-17.48l4.16.82 13.32-.82ZM1540.4 530.277h-17.5l5.84.6 11.66-.6Z" fill="#6BFF7E" style="mix-blend-mode:color-dodge" opacity=".5"/><path fill-rule="evenodd" clip-rule="evenodd" d="m1527.44 526.1 9.42 1.08 2.76 1.98 5.76 1.96 3.06 6.8 6.98 1.12 3.68 6.24 4.64.54 5.7 10.299-4.7-11.399h-5.42l-2.92-6.78-7.72-.32-2.3-7.6-6.5-1.26-2.02-2.66h-10.42Z" fill="#6BFF7E" style="mix-blend-mode:color-dodge" opacity=".7"/><path fill-rule="evenodd" clip-rule="evenodd" d="m1519.42 546 14.9.36.54 9.76h-18.82l3.38-10.12ZM1555.42 539.041l-9.78-.16 2.52 6.1 10.94.3-3.68-6.24ZM1539.62 529.161h-5.28v-1.14h-1.68l.16-1.3 4.04.46 2.76 1.98Z" fill="#EABB7E" style="mix-blend-mode:multiply" opacity=".1"/><path fill-rule="evenodd" clip-rule="evenodd" d="m1535.38 546.258.6 9.86h24.84l-1.22-4.24-12.02.2-1.2-5.82h-11Z" fill="#6BFF7E" style="mix-blend-mode:color-dodge" opacity=".1"/><path fill-rule="evenodd" clip-rule="evenodd" d="m1522.96 541.598 15.48.14.66 3.46-17.36-.14 1.22-3.46Z" fill="#EABB7E" style="mix-blend-mode:multiply" opacity=".1"/><path fill-rule="evenodd" clip-rule="evenodd" d="m1548.44 537.919-2.44-.06-.92-2.9h-3.66l-.3-2.02 5.12.1 2.2 4.88Z" fill="#6BFF7E" style="mix-blend-mode:color-dodge" opacity=".1"/><path fill-rule="evenodd" clip-rule="evenodd" d="m1543.88 535.599.74 2.34-16.06-.08.58-2.42 14.74.16Z" fill="#6BFF7E" style="mix-blend-mode:color-dodge" opacity=".1"/><path fill-rule="evenodd" clip-rule="evenodd" d="m1517.18 552.719-9.68-.22.76-2.06-4.34-.24-2.94 5.92h15.06l1.14-3.4ZM1523.98 538.68h-7.36l-.58 2.92h6.92l1.02-2.92Z" fill="#EABB7E" style="mix-blend-mode:multiply" opacity=".15"/><path fill-rule="evenodd" clip-rule="evenodd" d="m1518.26 545.018 1.3-3.42h-10.26l-1.54 3.26 10.5.16ZM1518.48 531.461h3.26l-.48 1.48h2.78l-.46 2.16-6.22.08 1.12-3.72ZM1517.94 550.439H1508l-.5 2.06h9.68l.76-2.06ZM1503.28 547.4l-.92 1.56-3.62.2.7-1.68 3.84-.08Z" fill="#6BFF7E" style="mix-blend-mode:color-dodge" opacity=".05"/><path fill-rule="evenodd" clip-rule="evenodd" d="m1525.44 528.76 3.8.04.62-1.04-3.82.18-.6.82ZM1538.94 532.941h-5.12l1.96-.72 3.16.72ZM1562.02 546.461h-7.5l3.08.7 4.42-.7ZM1542.38 541.597h-3.64l1.26-.48 2.38.48ZM1514.28 547.4h-4.58l1.22.56 3.36-.56ZM1526.38 537.199l-2.34-.2 1.4-.48.94.68Z" fill="#EABB7E" style="mix-blend-mode:multiply" opacity=".15"/><path fill-rule="evenodd" clip-rule="evenodd" d="M1429.08 556.099h29.68l39.08-.04h20.24l-6.54-8.74-2.42-3.22h-2.74l-2.28-4.78-1.54-.08-1.38-2.44-2.7-3.4h-2.26l-5.76-7.36-3.3-.96-7.5-7.7-3.62-1.72-2.02-2.06h-4.76v.02h-.02l-7.24 7.52-2.26.82-4.22 4.6-1.96 1.4-.98 3.06h-1.7l-2.92 5.14-.58.98-3.88 2.94-2.76 5.76-2.64.56-9.02 9.7Z" fill="url(#h)"/><path fill-rule="evenodd" clip-rule="evenodd" d="M1429 556.099h29.68s2.24-4.96 2.4-5.14c.17-.866.29-1.74.36-2.62l2-2.44 1.24-2 .44-3.2.2-1.14.36-1.24-.8-.78 1.34-2.62 2.92-.46-10-.72 6.64-.54.68-1.58-8.24-.62h12l-3.86-.8-.26-.78-1.32-.24 1.64-.46.22-.98-4-1.18h4l2-1.26 4.38-.5-4.5-.18.8-2.92-7.26-.58-2.26.82-4.22 4.62-2 1.4-1 3.04h-1.7l-2.92 5.14-.58.98-3.88 2.94-2.76 5.76-2.64.56-9.1 9.72Z" fill="#F5BE76"/><path fill-rule="evenodd" clip-rule="evenodd" d="m1469.26 513.619 4.02.64 2.02 2.02 2.88 1.32 8.76 9.02 1.78.24 6.08 6.6 3.26.32 2.58 5.46 1.74.04 3.76 5.44 1.68.16 10.26 11.2-8.96-11.98h-2.74l-2.28-4.78-1.54-.08-1.38-2.42-2.7-3.42h-2.26l-5.76-7.36-3.3-.96-7.5-7.72-3.62-1.72-2.02-2.02h-4.76Z" fill="#6BFF7E" style="mix-blend-mode:color-dodge" opacity=".7"/><path fill-rule="evenodd" clip-rule="evenodd" d="M1462 521.141h15.2l-7.6.58-7.6-.58ZM1462.66 526.58l8.44.2-4.48.96-3.96-1.16ZM1458.22 531.039h15.72l-7.4.52-8.32-.52Z" fill="#6BFF7E" style="mix-blend-mode:color-dodge" opacity=".5"/><path fill-rule="evenodd" clip-rule="evenodd" d="M1449.36 539.5h16.08l-13.44.72-2.64-.72ZM1442.9 545.84h12.34l-8.72.74-3.62-.74ZM1476.7 525.24l10.46-.16 3.44.98-1.88.8-12.02-1.62ZM1509.12 544.1H1499.5l8.32.78 1.3-.78ZM1500.74 539.24h-7.92l3.48.98 4.44-.98ZM1494.7 533.461h-16.96l10.5.96 6.46-.96ZM1488.02 544.1h-16.9l10.5.96 6.4-.96Z" fill="#6BFF7E" style="mix-blend-mode:color-dodge" opacity=".1"/><path fill-rule="evenodd" clip-rule="evenodd" d="m1479.66 517.361-1.48.24-2.88-1.32.74-.64 3.62 1.72Z" fill="#6BFF7E" style="mix-blend-mode:color-dodge" opacity=".5"/><path fill-rule="evenodd" clip-rule="evenodd" d="m1469.24 513.619-7.24 7.52h7.26l1.84-6.42-1.84-1.1h-.02ZM1461.16 550.961l3.46-1.24 23.4.56-26.86.68Z" fill="#EABB7E"/><path fill-rule="evenodd" clip-rule="evenodd" d="m1494.68 550.78 3.16 5.3h20.24l-6.54-8.76h-15.94l2.98 3.56-3.9-.1Z" fill="#6BFF7E" style="mix-blend-mode:color-dodge" opacity=".1"/><path fill-rule="evenodd" clip-rule="evenodd" d="m1464.1 543.74-3.54 3.88.6 3.34.02-.06.36-2.62 2.04-2.44 1.22-2 .44-3.2.2-1.4.36-.98-.8-.78 1.34-2.62 2.92-.46-10.04-.72 5.82 1.18-1.46 2.52 1.86 1.06-1.34 5.3ZM1471.1 514.721l-2.46 5.98-6.64.44h7.26l1.84-6.42ZM1466.58 526.561l2-1.24 4.38-.5-4.5-.18.8-2.92-2.68 4.84ZM1466.62 527.74l.92 1.9 2.56 1.4-3.76-.82-.26-.78-1.32-.24 1.62-.46.24-1Z" fill="#EABB7E" style="mix-blend-mode:multiply" opacity=".3"/><path fill-rule="evenodd" clip-rule="evenodd" d="m1474.54 533.461 12.52 1.38h-16.28l3.76-1.38ZM1503.88 541.42h-16.28l.96 2.68 17.08-.12-1.76-2.56ZM1490.12 528.381h-9.62l.64 1.52h-5.62l.38 1.4 16.38-.58-2.16-2.34Z" fill="#EABB7E" style="mix-blend-mode:multiply" opacity=".1"/><path fill-rule="evenodd" clip-rule="evenodd" d="M1475.3 516.279h-1.9l2.12 1.5 2.66-.18-2.88-1.32Z" fill="#6BFF7E" style="mix-blend-mode:color-dodge" opacity=".1"/><path fill-rule="evenodd" clip-rule="evenodd" d="M1469.84 519.098h4.1l.66.88 2.88.12 1.44 1.04h-9.66l.58-2.04ZM1465.8 538.26l8.96.14.76 1.46h5.1l.48.86-15.82-.32.52-2.14ZM1472.02 542.12v1.22l-7.22.5.3-2.12 6.92.4Z" fill="#EABB7E" style="mix-blend-mode:multiply" opacity=".1"/><path fill-rule="evenodd" clip-rule="evenodd" d="M1459.98 553.42h-14.06l1.38-2.1-14.08.32-4.14 4.46h29.68l1.22-2.68ZM1467.3 515.641h1.52l-4.34 4.8-2.48.7 5.3-5.5ZM1453.56 527.961h6.94l-1.96 3.1-5.96-.04.98-3.06Z" fill="#EABB7E" style="mix-blend-mode:multiply" opacity=".15"/><path fill-rule="evenodd" clip-rule="evenodd" d="M1453.56 527.96h4.16l.5-.8h-3.3l-1.36.8ZM1466.88 522.481l-5.14-.18-1.24 1.42h5.16l1.22-1.24Z" fill="#6BFF7E" style="mix-blend-mode:color-dodge" opacity=".1"/><path fill-rule="evenodd" clip-rule="evenodd" d="m1447.38 537.14 13.14.48.2-1.18-12.76-.28-.58.98ZM1464.46 542.32l-10.4-.4v.84h-5.58l-.4 2.3 14.5.34 1.52-1.66.36-1.42Z" fill="#EABB7E" style="mix-blend-mode:multiply" opacity=".15"/><path fill-rule="evenodd" clip-rule="evenodd" d="m1473.28 514.259.74-.64h-4.76l4.02.64Z" fill="#6BFF7E" style="mix-blend-mode:color-dodge" opacity=".5"/><path fill-rule="evenodd" clip-rule="evenodd" d="m1006.96 553.499 138.2-2.22 48.24-.78 221.62-3.6-60.52-54.139-38.26-34.18-16.78-15.04-16.04-14.36L1216.1 369h-16.08l-139.96 133.76-15.7 14.999-22.62 21.62-7.86 7.52-6.92 6.6Z" fill="url(#i)"/><path fill-rule="evenodd" clip-rule="evenodd" d="m1193.4 550.5-1.48-24.6h25.54l-4.04-21.08h-57.46l-5.18 12.32 3.16 5.6-4.74 10.98-4.04 17.56 48.24-.78Z" fill="#EABB7E" style="mix-blend-mode:multiply" opacity=".1"/><path fill-rule="evenodd" clip-rule="evenodd" d="m1013.88 546.999 7.86-7.52 22.62-21.72 15.7-14.999L1200.02 369l2.98 3.46-17.64 54.54s8.98 7.84 8.72 7.74c-.26-.1-15.62.6-15.62.6l2.56 4.4-5.1 5.42v4.76l-7.48 26-13.34-.6 9.3 8.52-13.62 33.219 59.6 2.4-56.44 3.2-4.74 10.98-4 17.54-138.2 2.32 6.88-6.5Z" fill="#E3AB62"/><path fill-rule="evenodd" clip-rule="evenodd" d="m1242.18 433.06 13.54 12.12 43.74-1.64-16.04-14.36-41.24 3.88Z" fill="#6BFF7E" style="mix-blend-mode:color-dodge" opacity=".1"/><path fill-rule="evenodd" clip-rule="evenodd" d="m1277.54 474.72 9.14 18.04h67.82l-38.26-34.18-27.02.9 12.46 15.24h-24.14Z" fill="#EABB7E" style="mix-blend-mode:multiply" opacity=".1"/><path fill-rule="evenodd" clip-rule="evenodd" d="m1186.18 476.8-31.08-1.42 9.3 8.54 21.78-7.12Z" fill="#6BFF7E" style="mix-blend-mode:color-dodge" opacity=".3"/><path fill-rule="evenodd" clip-rule="evenodd" d="M1415.02 546.879 1214.76 373.08l-11.82-.62-56.52 47.78 53.6-51.24h16.1l198.9 177.879Z" fill="#6BFF7E" style="mix-blend-mode:color-dodge" opacity=".7"/><path fill-rule="evenodd" clip-rule="evenodd" d="m1174.88 453.64 46.46 1.06 3.42 6.56-52.7 2.16 2.82-9.78ZM1325.8 492.76l6.94 7.68h-67.64l-2.56-7.68h63.26ZM1191.92 525.9h72.82l9 23.28-80.34 1.32-1.48-24.6ZM1199.44 383.32h9.48v6.82h-11.66l2.18-6.82Z" fill="#6BFF7E" style="mix-blend-mode:color-dodge" opacity=".1"/><path fill-rule="evenodd" clip-rule="evenodd" d="M1367.12 515.42h-64.72l7.3 12.62 68.02-2.14-10.6-10.48ZM1221.34 454.7l35.1-1.06 6.1 7.62h-37.78l-3.42-6.56ZM1197.26 390.141h16.64l5.5 9.38h8.4l2.2 5.48h-38.08l5.34-14.86ZM1164.4 483.92h-29.6l-17.06 18.84 39.36-1.04 7.3-17.8ZM1118.74 446.68h11.92l-8.28 6.96h16.32l-11.94 9.78h-25.54l17.52-16.74Z" fill="#EABB7E" style="mix-blend-mode:multiply" opacity=".1"/><path fill-rule="evenodd" clip-rule="evenodd" d="m1191.08 409.301-19.02.82-3.86 4.88h-3.8l-2.78 4.62h26.12l3.34-10.32Z" fill="#6BFF7E" style="mix-blend-mode:color-dodge" opacity=".1"/><path fill-rule="evenodd" clip-rule="evenodd" d="M1168.88 401.26h16.38l-.84 1.8-18.16.42 2.62-2.22Z" fill="#EABB7E" style="mix-blend-mode:multiply" opacity=".1"/><path fill-rule="evenodd" clip-rule="evenodd" d="m1141.08 478.86-55-.96-6.3 6.02h55.02l6.28-5.06ZM1149.2 533.721h-55.04l3.3-4.76h-22.12l-21.58 23.94 91.4-1.62 4.04-17.56Z" fill="#6BFF7E" style="mix-blend-mode:color-dodge" opacity=".1"/><path fill-rule="evenodd" clip-rule="evenodd" d="m1094.16 533.721 3.3-4.76h53.8l-2.06 4.76h-55.04ZM1013.88 546.901h34.76l8.04-7.52h-34.94l-7.86 7.52ZM1044.36 517.76h48.52l10.98-15h-43.8l-15.7 15Z" fill="#EABB7E" style="mix-blend-mode:multiply" opacity=".1"/><path fill-rule="evenodd" clip-rule="evenodd" d="m1038.4 533.72-6.04 5.66h-10.62l7.04-6.72 9.62 1.06ZM1147.54 448.34l20.48 1.08-.72 4.22h-28.6l5-5.3h3.84Z" fill="#6BFF7E" style="mix-blend-mode:color-dodge" opacity=".1"/><path fill-rule="evenodd" clip-rule="evenodd" d="m1185.36 427.039 8.72 7.72-15.64.6 6.92-8.32ZM1150.78 517.141l59.6 2.4-56.44 3.2-38.6-2.16 35.44-3.44Z" fill="#EABB7E" style="mix-blend-mode:multiply" opacity=".5"/><path fill-rule="evenodd" clip-rule="evenodd" d="m1189.42 414.461 21.56 2.16 1.84 5.16-25.82.14 2.42-7.46Z" fill="#EABB7E" style="mix-blend-mode:multiply" opacity=".1"/><path fill-rule="evenodd" clip-rule="evenodd" d="M1240.48 461.859h-14.62l7.32 1.56 7.3-1.56ZM1277.74 475.68h-19.92l7.68 2.22 12.24-2.22ZM1319.26 515.42h-25.6l13.04-2.36 12.56 2.36ZM1249.74 432.34l-15.72 1.5 4.02-2.08 11.7.58ZM1225.98 399.52h10.96l-5.48-1.28-5.48 1.28ZM1209.4 383.32h6.1l-2.68 1.64-3.42-1.64ZM1200 487.279h25.62l-12.8 2.6-12.82-2.6Z" fill="#6BFF7E" style="mix-blend-mode:color-dodge" opacity=".3"/><path fill-rule="evenodd" clip-rule="evenodd" d="M1124.34 475.381h-16.82l8.4-1.82 8.42 1.82ZM1194.08 390.141l-7.9.78.82 1.48 7.08-2.26ZM1173.52 448.339l-20.48-1.08 11.36-3.14 9.12 4.22ZM1103.86 502.759l31.26-.32-17.38 2.84-13.88-2.52ZM1063.46 525.9H1047l8.22-3.16 8.24 3.16ZM1149.2 417.881l12.42 1.74-4.74 2.3-7.68-4.04Z" fill="#EABB7E" style="mix-blend-mode:multiply" opacity=".3"/><path fill-rule="evenodd" clip-rule="evenodd" d="m887.199 573 78.98-25.039 26 9.48 150.261.78-42.96 2c-.36.042-.69.215-.93.486-.25.271-.38.621-.38.984 0 .362.13.712.38.983.24.271.57.444.93.487l10.9.96L887.199 573Z" fill="#FFC770" style="mix-blend-mode:multiply" opacity=".26"/><path fill-rule="evenodd" clip-rule="evenodd" d="M1622.48 563.461h-53.4l11.8 2.76 41.6-2.76ZM1549.04 559.461h-19.62l12.56 2.34 7.06-2.34ZM1536.7 562.58l-11.1-2.42h-39.38l50.48 2.42Z" fill="#FD81AC" style="mix-blend-mode:multiply" opacity=".26"/></g><path d="M2086 304.659c-31.5 5.362-59.79 28.417-60.38 57.562-96.12 68.438-35.62 138.615 12.38 138.615h186.26c23.26 0 101.24 10.269 101.24-45.177 0-44.357-42.41-53.843-61.5-51-11.46-44.357-60-42.438-76.5-9-3.58-59.711-38.87-101.663-101.5-91ZM38 305c-31.5 5.362-59.785 28.417-60.381 57.562C-118.5 431-58 501.177-10 501.177h186.26c23.264 0 101.24 10.269 101.24-45.177 0-44.357-42.411-53.843-61.5-51-11.453-44.357-60-42.438-76.5-9-3.579-59.711-38.866-101.663-101.5-91Z" fill="#fff" fill-opacity=".6"/><mask id="j" style="mask-type:alpha" maskUnits="userSpaceOnUse" x="0" y="378" width="2048" height="390"><path fill="#D9D9D9" d="M0 378h2048v390H0z"/></mask><g mask="url(#j)"><path d="M206 506.256s176.293-16.221 221.16-29.288c44.867-13.067 93.545-20.947 117.632-20.947 24.088 0 100.028 28.036 165.409 36.136 55.471 6.899 168.569-6.518 268.095 18.475 99.524 24.992 244.254 135.095 244.254 135.095L218.819 672.532 206 506.256Z" fill="url(#k)"/><path d="M379.562 544.305s286.792-31.36 281.785-47.872c-2.953-9.713-113.275-24.031-123.79-31.201-7.68-5.216 9.717-9.011 9.717-9.011l-1.093-.17c-.472 0-.959-.051-1.388-.051-24.043 0-72.75 7.881-117.632 20.948-17.294 5.006-54.142 10.553-92.88 15.42l45.281 51.937Z" fill="url(#l)"/><path d="M528 594.7s194.946-37.229 254.744-59.137C842.542 513.654 911.231 480 974.175 480c36.745 0 76.385 28.698 143.065 28.698 106.33 0 273.76 61.541 273.76 70.302 0 8.761-185.25 160.999-185.25 160.999l-653.943-19.025L528 594.7Z" fill="url(#m)"/><path d="M592.421 613.364c0-5.197 15.743-30.67 128.177-48.122 94.652-14.689 164.301-6.939 186.424-26.245 13.897-12.145-15.802-13.657-15.802-25.573 0-11.915 74.212-14.128 88.892-23.751 7.872-5.186.325-9.252.31-9.252a51.138 51.138 0 0 0-6.247-.37c-62.944 0-131.618 33.664-191.431 55.562C722.931 557.512 528 594.75 528 594.75l23.807 126.224 58.38 1.692c-15.625-44.828-17.766-105.887-17.766-109.302Z" fill="url(#n)"/><path d="M-66.442 587.427S58.19 469.335 110.174 447.78c21.404-8.884 52.208-15.578 64.741-15.578 48.057 0 113.411 40.976 218.313 68.196C497.336 527.41 722.166 564.6 743.055 602.205c20.888 37.606-305.349 97.654-305.349 97.654L-82 692.787l15.558-105.36Z" fill="url(#o)"/><path d="M-52.77 588.727-82 692.787l353.712 4.815c183.624-30.92 46.47-66.09 46.47-90.695 0-27.824 132.559-33.989 109.261-61.02-23.297-27.031-277.733-34.273-285.95-57.036-8.564-23.717 46.651-25.294 49.994-41.543 2.687-13.218-16.572-15.106-16.572-15.106-12.533 0-43.337 6.694-64.754 15.578-122.856 50.963-162.93 140.947-162.93 140.947Z" fill="url(#p)"/><path d="M1556.78 596.254s137.67-128.236 195.09-152.046c23.64-9.814 57.67-17.208 71.51-17.208 53.09 0 109.24 77.433 225.12 107.5 115 29.838 301.5 103 402.45 80.288 23.08 41.54-337.29 107.869-337.29 107.869l-574.07-7.811 17.19-118.592Z" fill="url(#q)"/><path d="m1571.88 599.9-32.29 114.946 390.71 5.319c202.84-34.156 51.34-73.005 51.34-100.183 0-30.735 146.42-37.545 120.69-67.404-25.74-29.859-306.79-37.858-315.87-63.003-9.46-26.198 51.53-27.94 55.23-45.888 2.96-14.601-18.31-16.687-18.31-16.687-13.84 0-47.87 7.394-71.53 17.208-135.71 56.294-179.97 155.692-179.97 155.692Z" fill="url(#r)"/><path d="M1215 627.5s131.66-78.191 165.84-78.831c34.17-.639 71.91 5.575 147.91 4.156 63.49-1.189 189.93-36.476 244.42-30.042 54.5 6.434 87.39 24.827 151.41 23.628C1988.6 545.212 2207 615.5 2207 615.5L1299.56 645 1215 627.5Z" fill="url(#s)"/><path d="M1529.1 552.927c-75.96 1.423-113.68-4.798-147.85-4.167C1358.5 548.76 1292 585 1280 591c17-7.5 24.34-13.31 46.59-1.84 29.16 14.967 93.72 23.812 186.02 5.75 92.3-18.061 68.53-17.2 182.95-48.164 42.17-11.41 65.97-4.658 77.34-12.932 8.92-6.492.5-11.019.5-11.019-54.45-6.492-180.83 28.89-244.3 30.132Z" fill="url(#t)"/><path d="M1998.56 587.427s124.63-118.092 176.61-139.647c21.41-8.884 52.21-15.578 64.74-15.578 48.06 0 113.42 40.976 218.32 68.196 104.11 27.012 328.94 64.202 349.82 101.807 20.89 37.606-305.34 97.654-305.34 97.654L1983 692.787l15.56-105.36Z" fill="url(#u)"/><path d="M1995.23 588.727 1966 692.787l353.71 4.815c183.63-30.92 46.47-66.09 46.47-90.695 0-27.824 132.56-33.989 109.26-61.02-23.29-27.031-277.73-34.273-285.95-57.036-8.56-23.717 46.65-25.294 50-41.543 2.68-13.218-16.57-15.106-16.57-15.106-12.54 0-43.34 6.694-64.76 15.578-122.86 50.963-162.93 140.947-162.93 140.947Z" fill="url(#v)"/></g><path fill="url(#w)" d="M0 583h2048v185H0z"/><path d="M1139.63 396.635h-131.12c-12.267 0-41.51 4.729-41.51-19.862 0-19.673 20.124-22.069 30.187-20.808 6.033-19.673 21.383-22.069 28.303-20.808 1.88-26.483 20.75-48.236 53.77-43.507 26.41 3.783 33.64 30.581 33.96 43.507 8.3-.756 13.52 5.99 15.09 9.458 22.64-10.404 45.28 0 42.45 27.429-2.26 21.943-21.7 25.537-31.13 24.591Z" fill="#fff" fill-opacity=".6"/><path d="M1821.07 256.707h104.77c9.79 0 33.16 3.793 33.16-15.927 0-15.775-16.08-17.697-24.12-16.685-4.82-15.776-17.08-17.697-22.61-16.686-1.51-21.236-16.58-38.68-42.97-34.888-21.1 3.034-26.88 24.523-27.13 34.888-6.63-.607-10.8 4.804-12.06 7.584-18.09-8.342-36.18 0-33.92 21.995 1.81 17.596 17.34 20.478 24.88 19.719ZM300.548 240.762h-85.487c-7.996 0-27.061 3.079-27.061-12.929 0-12.806 13.12-14.365 19.68-13.544 3.937-12.806 13.941-14.366 18.451-13.545 1.23-17.239 13.53-31.399 35.056-28.321 17.22 2.463 21.935 19.907 22.14 28.321 5.412-.493 8.816 3.899 9.841 6.157 14.76-6.773 29.52 0 27.675 17.854-1.476 14.284-14.145 16.623-20.295 16.007Z" fill="#fff" fill-opacity=".4"/><g fill="#fff" fill-opacity=".2"><circle cx="615" cy="174" r="117"/><circle cx="845" cy="44" r="47"/><circle cx="903" cy="18" r="39"/></g><g fill="#fff" fill-opacity=".2"><circle cx="1408" cy="174" r="117"/><circle cx="1638" cy="44" r="47"/><circle cx="1696" cy="18" r="39"/></g><g filter="url(#x)"><path d="M610.923 614.507C272.538 621.972 63.363 616.995-1 616.995v105.507l288.875.498 287.334-5.972 162.877-7.465 372.834-2.986 569.79 10.451 369.29 5.474V616.995c-827.67-8.46-1026.47-11.59-1439.077-2.488Z" fill="#FFF3DD"/></g><g opacity=".8" filter="url(#y)" fill="#5B282C"><path d="M305.251 759.769c0-1.344 1.757-13.446 1.757-13.446l-2.46-1.564-2.022 10.08s-.448-.668-2.689-5.378c-2.241-4.711-4.666-13.27-4.666-13.27l-2.276 2.961s.703 5.827 8.296 20.82c7.593 14.992 14.79 21.742 14.79 21.742h4.034a69.777 69.777 0 0 1-6.275-7.62c-3.559-4.912-8.489-12.98-8.489-14.325Z"/><path d="m324.294 749.424-4.253 5.158-3.137-17.708 4.033-15.907h-3.585l-2.022 10.757-1.344-10.08-2.909.879s3.586 23.078 4.482 29.353c.896 6.274.668 7.39.668 7.39l-6.495-4.033-.878 2.469s6.274 4.254 9.667 7.163c0 0 1.757 10.985 1.573 16.811h3.357s-.879-13.674-2.461-22.849l4.034-6.723-.73-2.68Z"/><path d="m303.905 727.059-2.012 2.69 12.022 10.888-.624-4.288-9.386-9.29ZM336.413 721.62a75.289 75.289 0 0 1-5.168 15.291s-.448-11.873-.676-15.906h-3.138s1.125 19.272.879 32.516-3.357 28.236-3.357 28.236h3.357s1.758-8.296 3.138-15.915l6.274-6.494v-3.612l-6.494 5.598s.448-11.873.22-18.596a71.69 71.69 0 0 0 8.085-20.213l-3.12-.905ZM290.318 757.668l-2.083 3.383c2.637 4.684 8.499 10.546 8.499 10.546l-8.929.255.773 3.902 10.15-.633 8.499 6.653h6.151s-3.207-2.549-8.322-7.145c-5.115-4.596-14.738-16.961-14.738-16.961Z"/><path d="m349.155 740.636 3.12-13.841-3.629-1.45s-3.867 24.405-8.613 36.55a83.153 83.153 0 0 1-10.871 19.835h4.544a76.457 76.457 0 0 0 8.735-15.608 53.022 53.022 0 0 0 7.751-1.968v-2.901a40.894 40.894 0 0 1-6.151 1.222s2.952-11.108 4.279-16.425a66.44 66.44 0 0 0 12.031-13.473l-3.128-1.968a63.17 63.17 0 0 1-8.068 10.027Z"/><path d="M358.365 765.07s7.207-14.765 9.061-22.674l-1.679-3.638s-7.514 20.933-15.151 30.934c-7.636 10.001-12.373 12.031-12.373 12.031h5.519s4.069-.984 11.583-12.031c0 0 10.651-.633 15.862-2.258v-3.946s-3.207 2.109-12.822 1.582Z"/><g fill-opacity=".6"><path d="m378.525 751.278-1.098 3.744 7.25 16.61-22.647-11.75-5.089-7.198.352-16.065-1.934-2.531-.878 15.257-16.136-19.334-3.515-1.67s21.725 30.477 24.739 32.797c3.014 2.321 34.696 20.574 34.696 20.574h2.847l-8.973-9.272-9.614-21.162Z"/><path d="m396.234 746.543-6.908 9.517-1.318-2.759-2.364-23.491 10.502-17.831-3.594 1.054-8.156 12.98-2.724-8.77 3.427 38.158 6.477 22.076 5.537 4.236-7.057-21.092 8.375-13.2-2.197-.878Z"/><path d="m402.991 761.509 3.595-17.867 10.528-10.431h-2.724l-7.541 6.749.088-16.838 7.716-11.143-3.331 1.318-4.209 6.758-.879-5.704-2.452 19.827-8.34-12.55-2.452-1.309 10.88 19.114-8.946 42.28h4.121l3.77-17.278 14.738-10.088-2.9-.528-11.662 7.69Z"/><path d="m432.987 745.752 7.725-16.75-1.67-10.309 5.132-9.693h-2.153l-4.737 8.946-5.088-8.067 4.482 10.519 1.046 9.043-6.978 14.325-4.245-15.819-2.812-.878 5 19.474-6.749 14.123-13.464 12.673 2.013-9.606-2.391 1.731-2.636 11.012-9.403 5.238h7.9l20.784-19.211 6.671-12.893 15.168-8.595-2.364-.79-11.231 5.527Z"/><path d="m453.691 742.245 4.913-18.156-.615-3.076-12.111 34.564-45.523 26.136h6.583l19.211-10.695 19.123.263.703-2.285-16.803-.175 18.816-10.792 4.649-11.838 14.034-10.353-2.364-.966-10.616 7.373ZM359.648 769.804l13.244 7.901-13.947-.703 1.23 2.803 15.257 1.907h13.165l-31.409-15.766 2.46 3.858Z"/></g></g><g filter="url(#z)" fill-rule="evenodd" clip-rule="evenodd"><path d="M1698.08 779.323s-6.59-58.18 5.15-78.863c0 0 3.04 44.551 0 60.777-3.05 16.226-5.15 18.086-5.15 18.086Z" fill="url(#A)"/><path d="M1713.34 675s2.73 73.071-6.55 104.323h6.92s7.25-29.179 6.72-53.064c-.54-23.886-7.09-51.259-7.09-51.259Z" fill="url(#B)"/><path d="M1729.69 710.308s-15.07 46.357-15.98 69.015h10.66s13.31-43.999 15.03-57.93c0 0-10.76 23.636-18.96 47.495.02 0 10.36-47.78 9.25-58.58Z" fill="url(#C)"/><path d="M1729.69 679.447s5.99 61.196 0 100.302l9.72-.4s2.74-25.958.66-53.936c-2.09-27.978-10.38-45.966-10.38-45.966Z" fill="url(#D)"/><path d="M1745.28 779.323h9.28s9.14-47.478 21.02-66.986c0 .026-21.79 27.141-30.3 66.986Z" fill="url(#E)"/><path d="M1750.92 694.278s8.65 50.929 9.52 85.045h7.4s-1.7-42.229-16.92-85.045Z" fill="url(#F)"/><path d="M1703.23 779.324h-5.15s-11.46-30.683-19.08-56.365c0 0 17.4 19.064 24.23 56.365Z" fill="url(#G)"/></g></g><defs><linearGradient id="a" x1="1024" y1="0" x2="1024" y2="768" gradientUnits="userSpaceOnUse"><stop stop-color="#FFDEBF"/><stop offset="1" stop-color="#fff" stop-opacity="0"/></linearGradient><linearGradient id="c" x1="1336.86" y1="573.78" x2="1336.86" y2="539.04" gradientUnits="userSpaceOnUse"><stop stop-color="#FFC572"/><stop offset="1" stop-color="#FFD68B"/></linearGradient><linearGradient id="d" x1="1565.3" y1="546.96" x2="1565.3" y2="474.24" gradientUnits="userSpaceOnUse"><stop offset=".02" stop-color="#FDD892"/><stop offset="1" stop-color="#E3A966"/></linearGradient><linearGradient id="e" x1="1382.79" y1="546.879" x2="1382.79" y2="405.74" gradientUnits="userSpaceOnUse"><stop offset=".02" stop-color="#FDD892"/><stop offset="1" stop-color="#FFC685"/></linearGradient><linearGradient id="f" x1="1576.46" y1="556.14" x2="1576.46" y2="533.32" gradientUnits="userSpaceOnUse"><stop offset=".02" stop-color="#FDD892"/><stop offset="1" stop-color="#FFC685"/></linearGradient><linearGradient id="g" x1="1532.65" y1="556.119" x2="1532.65" y2="526.1" gradientUnits="userSpaceOnUse"><stop offset=".02" stop-color="#FDD892"/><stop offset="1" stop-color="#FFC685"/></linearGradient><linearGradient id="h" x1="1473.58" y1="556.099" x2="1473.58" y2="513.599" gradientUnits="userSpaceOnUse"><stop offset=".02" stop-color="#FDD892"/><stop offset="1" stop-color="#FFC685"/></linearGradient><linearGradient id="i" x1="1210.98" y1="553.499" x2="1210.98" y2="369" gradientUnits="userSpaceOnUse"><stop offset=".02" stop-color="#FDD892"/><stop offset="1" stop-color="#E3A966"/></linearGradient><linearGradient id="k" x1="714.277" y1="456.021" x2="714.277" y2="672.532" gradientUnits="userSpaceOnUse"><stop stop-color="#FFD089"/><stop offset="1" stop-color="#FFD5A3"/></linearGradient><linearGradient id="l" x1="497.847" y1="456" x2="497.847" y2="544.305" gradientUnits="userSpaceOnUse"><stop stop-color="#FFB84D"/><stop offset="1" stop-color="#FFD4A3"/></linearGradient><linearGradient id="m" x1="959.5" y1="480" x2="959.5" y2="739.999" gradientUnits="userSpaceOnUse"><stop stop-color="#FFD089"/><stop offset="1" stop-color="#FFD5A3"/></linearGradient><linearGradient id="n" x1="528" y1="601.349" x2="983.701" y2="601.349" gradientUnits="userSpaceOnUse"><stop offset=".28" stop-color="#FFBB6B"/><stop offset="1" stop-color="#FFC591"/></linearGradient><linearGradient id="o" x1="331.008" y1="432.202" x2="331.008" y2="699.859" gradientUnits="userSpaceOnUse"><stop stop-color="#FFDCA6"/><stop offset="1" stop-color="#FFD5A3"/></linearGradient><linearGradient id="p" x1="174.095" y1="432.202" x2="174.095" y2="697.602" gradientUnits="userSpaceOnUse"><stop stop-color="#F9C67B"/><stop offset="1" stop-color="#FFD4A3"/></linearGradient><linearGradient id="q" x1="1995.8" y1="427" x2="1995.8" y2="722.657" gradientUnits="userSpaceOnUse"><stop stop-color="#FFD089"/><stop offset="1" stop-color="#FFD5A3"/></linearGradient><linearGradient id="r" x1="1822.48" y1="427" x2="1822.48" y2="720.165" gradientUnits="userSpaceOnUse"><stop stop-color="#F9C67B"/><stop offset="1" stop-color="#FFD4A3"/></linearGradient><linearGradient id="s" x1="1736.5" y1="522" x2="1736.5" y2="645" gradientUnits="userSpaceOnUse"><stop stop-color="#FFDDA9"/><stop offset="1" stop-color="#FFD5A3"/></linearGradient><linearGradient id="t" x1="1269.21" y1="563.395" x2="1778.66" y2="562.124" gradientUnits="userSpaceOnUse"><stop stop-color="#F2875F" stop-opacity=".1"/><stop offset="1" stop-color="#FFC17F" stop-opacity=".7"/></linearGradient><linearGradient id="u" x1="2396.01" y1="432.202" x2="2396.01" y2="699.859" gradientUnits="userSpaceOnUse"><stop stop-color="#FFDCA6"/><stop offset="1" stop-color="#FFD5A3"/></linearGradient><linearGradient id="v" x1="2222.1" y1="432.202" x2="2222.1" y2="697.602" gradientUnits="userSpaceOnUse"><stop stop-color="#F9C67B"/><stop offset="1" stop-color="#FFD4A3"/></linearGradient><linearGradient id="w" x1="1024" y1="583" x2="1024" y2="768" gradientUnits="userSpaceOnUse"><stop stop-color="#FFE8B7"/><stop offset=".63" stop-color="#FFD89B"/><stop offset=".724" stop-color="#EAAE54"/><stop offset="1" stop-color="#FFCE8D"/></linearGradient><linearGradient id="A" x1="1700.39" y1="767.286" x2="1700.39" y2="722.735" gradientUnits="userSpaceOnUse"><stop offset=".01" stop-color="#424243"/><stop offset=".96" stop-color="#544F4A"/></linearGradient><linearGradient id="B" x1="1719.59" y1="774.599" x2="1714.16" y2="694.658" gradientUnits="userSpaceOnUse"><stop stop-color="#5B5943"/><stop offset=".32" stop-color="#58665A"/><stop offset=".97" stop-color="#518188"/></linearGradient><linearGradient id="C" x1="1726.57" y1="767.287" x2="1726.57" y2="722.736" gradientUnits="userSpaceOnUse"><stop offset=".01" stop-color="#424243"/><stop offset=".96" stop-color="#544F4A"/></linearGradient><linearGradient id="D" x1="1739.66" y1="773.238" x2="1734.22" y2="693.295" gradientUnits="userSpaceOnUse"><stop stop-color="#5B5943"/><stop offset=".32" stop-color="#58665A"/><stop offset=".97" stop-color="#518188"/></linearGradient><linearGradient id="E" x1="1760.44" y1="767.287" x2="1760.44" y2="722.736" gradientUnits="userSpaceOnUse"><stop offset=".01" stop-color="#424243"/><stop offset=".96" stop-color="#544F4A"/></linearGradient><linearGradient id="F" x1="1764.1" y1="771.575" x2="1758.66" y2="691.634" gradientUnits="userSpaceOnUse"><stop stop-color="#5B5943"/><stop offset=".32" stop-color="#58665A"/><stop offset=".97" stop-color="#518188"/></linearGradient><linearGradient id="G" x1="1696.13" y1="776.201" x2="1690.69" y2="696.259" gradientUnits="userSpaceOnUse"><stop stop-color="#5B5943"/><stop offset=".32" stop-color="#58665A"/><stop offset=".97" stop-color="#518188"/></linearGradient><filter id="x" x="-5" y="601" width="2059" height="122" filterUnits="userSpaceOnUse" color-interpolation-filters="sRGB"><feFlood flood-opacity="0" result="BackgroundImageFix"/><feColorMatrix in="SourceAlpha" values="0 0 0 0 0 0 0 0 0 0 0 0 0 0 0 0 0 0 127 0" result="hardAlpha"/><feOffset dy="-4"/><feGaussianBlur stdDeviation="2"/><feComposite in2="hardAlpha" operator="out"/><feColorMatrix values="0 0 0 0 1 0 0 0 0 0.83538 0 0 0 0 0.601725 0 0 0 1 0"/><feBlend in2="BackgroundImageFix" result="effect1_dropShadow_152_3805"/><feBlend in="SourceGraphic" in2="effect1_dropShadow_152_3805" result="shape"/><feColorMatrix in="SourceAlpha" values="0 0 0 0 0 0 0 0 0 0 0 0 0 0 0 0 0 0 127 0" result="hardAlpha"/><feOffset dy="-8"/><feGaussianBlur stdDeviation="2.5"/><feComposite in2="hardAlpha" operator="arithmetic" k2="-1" k3="1"/><feColorMatrix values="0 0 0 0 1 0 0 0 0 0.910306 0 0 0 0 0.745866 0 0 0 1 0"/><feBlend in2="shape" result="effect2_innerShadow_152_3805"/></filter><filter id="y" x="197" y="705" width="273.672" height="84.095" filterUnits="userSpaceOnUse" color-interpolation-filters="sRGB"><feFlood flood-opacity="0" result="BackgroundImageFix"/><feBlend in="SourceGraphic" in2="BackgroundImageFix" result="shape"/><feGaussianBlur stdDeviation="2" result="effect1_foregroundBlur_152_3805"/></filter><filter id="z" x="1675" y="671" width="104.582" height="112.749" filterUnits="userSpaceOnUse" color-interpolation-filters="sRGB"><feFlood flood-opacity="0" result="BackgroundImageFix"/><feBlend in="SourceGraphic" in2="BackgroundImageFix" result="shape"/><feGaussianBlur stdDeviation="2" result="effect1_foregroundBlur_152_3805"/></filter></defs></svg>